<svg xmlns="http://www.w3.org/2000/svg" viewBox="0 15.800000190734863 346.3999938964844 36" data-asc="1.024" width="346.3999938964844" height="36"><defs/><g><g fill="#0c0381"><g transform="translate(0, 0)"><path d="M0 51.20L10.65 18.50L17.45 18.50L28.10 51.20L22.00 51.20L17.00 33.80Q16.20 31.20 15.47 28.45Q14.75 25.70 14.05 23L13.85 23Q13.20 25.75 12.47 28.48Q11.75 31.20 10.95 33.80L5.90 51.20L0 51.20M6.30 42.35L6.30 37.80L21.70 37.80L21.70 42.35L6.30 42.35ZM38.50 51.80Q35.95 51.80 33.48 50.85Q31.00 49.90 29.20 48.20L31.75 44.90Q33.40 46.25 35.10 46.85Q36.80 47.45 38.70 47.45Q40.70 47.45 41.65 46.60Q42.60 45.75 42.60 44.50Q42.60 43.50 41.88 42.80Q41.15 42.10 40 41.60Q38.85 41.10 37.45 40.60Q35.65 39.95 34.10 39.03Q32.55 38.10 31.58 36.73Q30.60 35.35 30.60 33.40Q30.60 30.15 33 28.10Q35.40 26.05 39.50 26.05Q42 26.05 44.10 26.88Q46.20 27.70 47.70 29L45.15 32.25Q43.85 31.30 42.50 30.85Q41.15 30.40 39.65 30.40Q37.80 30.40 36.90 31.20Q36 32 36 33.10Q36 34 36.58 34.63Q37.15 35.25 38.25 35.73Q39.35 36.20 40.90 36.70Q42.80 37.35 44.45 38.28Q46.10 39.20 47.08 40.63Q48.05 42.05 48.05 44.20Q48.05 46.30 46.95 48.03Q45.85 49.75 43.73 50.78Q41.60 51.80 38.50 51.80ZM60.05 51.80Q57.50 51.80 55.03 50.85Q52.55 49.90 50.75 48.20L53.30 44.90Q54.95 46.25 56.65 46.85Q58.35 47.45 60.25 47.45Q62.25 47.45 63.20 46.60Q64.15 45.75 64.15 44.50Q64.15 43.50 63.43 42.80Q62.70 42.10 61.55 41.60Q60.40 41.10 59.00 40.60Q57.20 39.95 55.65 39.03Q54.10 38.10 53.13 36.73Q52.15 35.35 52.15 33.40Q52.15 30.15 54.55 28.10Q56.95 26.05 61.05 26.05Q63.55 26.05 65.65 26.88Q67.75 27.70 69.25 29L66.70 32.25Q65.40 31.30 64.05 30.85Q62.70 30.40 61.20 30.40Q59.35 30.40 58.45 31.20Q57.55 32 57.55 33.10Q57.55 34 58.13 34.63Q58.70 35.25 59.80 35.73Q60.90 36.20 62.45 36.70Q64.35 37.35 66 38.28Q67.65 39.20 68.63 40.63Q69.60 42.05 69.60 44.20Q69.60 46.30 68.50 48.03Q67.40 49.75 65.28 50.78Q63.15 51.80 60.05 51.80ZM74.75 51.20L74.75 26.65L80.50 26.65L80.50 51.20L74.75 51.20M77.60 22.35Q76.10 22.35 75.13 21.45Q74.15 20.55 74.15 19.05Q74.15 17.55 75.13 16.68Q76.10 15.80 77.60 15.80Q79.15 15.80 80.10 16.68Q81.05 17.55 81.05 19.05Q81.05 20.55 80.10 21.45Q79.15 22.35 77.60 22.35ZM94.70 51.80Q92.15 51.80 89.68 50.85Q87.20 49.90 85.40 48.20L87.95 44.90Q89.60 46.25 91.30 46.85Q93.00 47.45 94.90 47.45Q96.90 47.45 97.85 46.60Q98.80 45.75 98.80 44.50Q98.80 43.50 98.08 42.80Q97.35 42.10 96.20 41.60Q95.05 41.10 93.65 40.60Q91.85 39.95 90.30 39.03Q88.75 38.10 87.78 36.73Q86.80 35.35 86.80 33.40Q86.80 30.15 89.20 28.10Q91.60 26.05 95.70 26.05Q98.20 26.05 100.30 26.88Q102.40 27.70 103.90 29L101.35 32.25Q100.05 31.30 98.70 30.85Q97.35 30.40 95.85 30.40Q94.00 30.40 93.10 31.20Q92.20 32 92.20 33.10Q92.20 34 92.78 34.63Q93.35 35.25 94.45 35.73Q95.55 36.20 97.10 36.70Q99.00 37.35 100.65 38.28Q102.30 39.20 103.28 40.63Q104.25 42.05 104.25 44.20Q104.25 46.30 103.15 48.03Q102.05 49.75 99.93 50.78Q97.80 51.80 94.70 51.80ZM118.05 51.70Q113.80 51.70 112.03 49.23Q110.25 46.75 110.25 42.80L110.25 31.20L106.75 31.20L106.75 26.90L110.55 26.65L111.25 18.95L116.05 18.95L116.05 26.65L122.30 26.65L122.30 31.20L116.05 31.20L116.05 42.80Q116.05 44.95 116.90 46.03Q117.75 47.10 119.50 47.10Q120.15 47.10 120.80 47Q121.45 46.90 122.05 46.60L123.10 50.65Q122.15 51.10 120.85 51.40Q119.55 51.70 118.05 51.70ZM133.40 51.80Q131.25 51.80 129.60 50.90Q127.95 50 127.03 48.38Q126.10 46.75 126.10 44.60Q126.10 40.45 129.58 38.33Q133.05 36.20 140.60 35.40Q140.55 34.15 140.13 33.10Q139.70 32.05 138.73 31.43Q137.75 30.80 136.10 30.80Q134.30 30.80 132.58 31.45Q130.85 32.10 129.20 33.10L127.10 29.20Q128.45 28.35 130.05 27.63Q131.65 26.90 133.45 26.48Q135.25 26.05 137.20 26.05Q140.25 26.05 142.28 27.28Q144.30 28.50 145.33 30.88Q146.35 33.25 146.35 36.70L146.35 51.20L141.60 51.20L141.20 48.50L141 48.50Q139.30 49.90 137.45 50.85Q135.60 51.80 133.40 51.80M135.20 47.10Q136.70 47.10 137.98 46.48Q139.25 45.85 140.60 44.60L140.60 39.40Q137.25 39.80 135.30 40.45Q133.35 41.10 132.53 42.03Q131.70 42.95 131.70 44.20Q131.70 45.75 132.70 46.43Q133.70 47.10 135.20 47.10ZM153.25 51.20L153.25 26.65L158.00 26.65L158.40 29.95L158.60 29.95Q160.25 28.35 162.20 27.20Q164.15 26.05 166.65 26.05Q170.60 26.05 172.40 28.60Q174.20 31.15 174.20 35.80L174.20 51.20L168.45 51.20L168.45 36.55Q168.45 33.50 167.55 32.25Q166.65 31 164.60 31Q163.00 31 161.78 31.78Q160.55 32.55 159.00 34.05L159.00 51.20L153.25 51.20ZM189.90 51.70Q185.65 51.70 183.88 49.23Q182.10 46.75 182.10 42.80L182.10 31.20L178.60 31.20L178.60 26.90L182.40 26.65L183.10 18.95L187.90 18.95L187.90 26.65L194.15 26.65L194.15 31.20L187.90 31.20L187.90 42.80Q187.90 44.95 188.75 46.03Q189.60 47.10 191.35 47.10Q192.00 47.10 192.65 47Q193.30 46.90 193.90 46.60L194.95 50.65Q194.00 51.10 192.70 51.40Q191.40 51.70 189.90 51.70ZM219.35 51.80Q215.95 51.80 212.93 50.55Q209.90 49.30 207.55 47L210.70 43.20Q212.45 44.90 214.78 45.83Q217.10 46.75 219.45 46.75Q222.25 46.75 223.70 45.60Q225.15 44.45 225.15 42.55Q225.15 41.20 224.50 40.38Q223.85 39.55 222.73 38.95Q221.60 38.35 220.10 37.75L215.60 35.80Q214.00 35.10 212.48 33.98Q210.95 32.85 209.98 31.18Q209.00 29.50 209.00 27.10Q209.00 24.50 210.43 22.43Q211.85 20.35 214.33 19.13Q216.80 17.90 220.00 17.90Q222.95 17.90 225.58 18.98Q228.20 20.05 230.05 21.90L227.00 25.70Q225.40 24.40 223.65 23.68Q221.90 22.95 220.00 22.95Q217.70 22.95 216.28 23.98Q214.85 25 214.85 26.80Q214.85 28.05 215.58 28.88Q216.30 29.70 217.53 30.28Q218.75 30.85 220.05 31.40L224.50 33.25Q226.45 34.10 227.95 35.25Q229.45 36.40 230.28 38.05Q231.10 39.70 231.10 42.10Q231.10 44.75 229.70 46.95Q228.30 49.15 225.68 50.48Q223.05 51.80 219.35 51.80ZM236.55 51.20L236.55 26.65L242.30 26.65L242.30 51.20L236.55 51.20M239.40 22.35Q237.90 22.35 236.93 21.45Q235.95 20.55 235.95 19.05Q235.95 17.55 236.93 16.68Q237.90 15.80 239.40 15.80Q240.95 15.80 241.90 16.68Q242.85 17.55 242.85 19.05Q242.85 20.55 241.90 21.45Q240.95 22.35 239.40 22.35ZM255.60 51.80Q253.45 51.80 251.80 50.90Q250.15 50 249.23 48.38Q248.30 46.75 248.30 44.60Q248.30 40.45 251.78 38.33Q255.25 36.20 262.80 35.40Q262.75 34.15 262.33 33.10Q261.90 32.05 260.93 31.43Q259.95 30.80 258.30 30.80Q256.50 30.80 254.78 31.45Q253.05 32.10 251.40 33.10L249.30 29.20Q250.65 28.35 252.25 27.63Q253.85 26.90 255.65 26.48Q257.45 26.05 259.40 26.05Q262.45 26.05 264.48 27.28Q266.50 28.50 267.53 30.88Q268.55 33.25 268.55 36.70L268.55 51.20L263.80 51.20L263.40 48.50L263.20 48.50Q261.50 49.90 259.65 50.85Q257.80 51.80 255.60 51.80M257.40 47.10Q258.90 47.10 260.18 46.48Q261.45 45.85 262.80 44.60L262.80 39.40Q259.45 39.80 257.50 40.45Q255.55 41.10 254.73 42.03Q253.90 42.95 253.90 44.20Q253.90 45.75 254.90 46.43Q255.90 47.10 257.40 47.10ZM275.45 51.20L275.45 26.65L280.20 26.65L280.60 29.95L280.80 29.95Q282.45 28.35 284.40 27.20Q286.35 26.05 288.85 26.05Q292.80 26.05 294.60 28.60Q296.40 31.15 296.40 35.80L296.40 51.20L290.65 51.20L290.65 36.55Q290.65 33.50 289.75 32.25Q288.85 31 286.80 31Q285.20 31 283.98 31.78Q282.75 32.55 281.20 34.05L281.20 51.20L275.45 51.20ZM313.80 51.80Q310.40 51.80 307.70 50.28Q305 48.75 303.43 45.88Q301.85 43 301.85 38.95Q301.85 34.85 303.55 31.98Q305.25 29.10 308.07 27.58Q310.90 26.05 314.15 26.05Q316.50 26.05 318.28 26.83Q320.05 27.60 321.35 28.80L318.60 32.40Q317.80 31.65 316.78 31.20Q315.75 30.75 314.45 30.75Q312.50 30.75 311 31.78Q309.50 32.80 308.63 34.63Q307.75 36.45 307.75 38.95Q307.75 41.40 308.60 43.23Q309.45 45.05 310.93 46.08Q312.40 47.10 314.35 47.10Q315.80 47.10 317.07 46.55Q318.35 46 319.35 45.15L321.70 48.70Q320.15 50.10 318.13 50.95Q316.10 51.80 313.80 51.80ZM337.10 51.80Q333.65 51.80 330.88 50.28Q328.10 48.75 326.50 45.88Q324.90 43 324.90 38.90Q324.90 34.90 326.55 32.03Q328.20 29.15 330.80 27.60Q333.40 26.05 336.30 26.05Q339.65 26.05 341.90 27.55Q344.15 29.05 345.28 31.68Q346.40 34.30 346.40 37.70Q346.40 38.50 346.33 39.25Q346.25 40 346.10 40.70L329.20 40.70L329.20 36.30L341.30 36.30Q341.30 33.65 340.10 32.13Q338.90 30.60 336.40 30.60Q335.00 30.60 333.68 31.35Q332.35 32.10 331.48 33.90Q330.60 35.70 330.60 38.90Q330.60 41.80 331.60 43.63Q332.60 45.45 334.25 46.33Q335.90 47.20 337.80 47.20Q339.40 47.20 340.83 46.75Q342.25 46.30 343.50 45.50L345.50 49.20Q343.80 50.40 341.63 51.10Q339.45 51.80 337.10 51.80Z"/></g></g></g></svg>